<svg xmlns="http://www.w3.org/2000/svg" xmlns:xlink="http://www.w3.org/1999/xlink" viewBox="0 0 600 600" width="600" height="600" preserveAspectRatio="xMidYMid meet" style="width: 100%; height: 100%; transform: translate3d(0px, 0px, 0px); content-visibility: visible;"><defs><clipPath id="__lottie_element_1609"><rect width="600" height="600" x="0" y="0"/></clipPath></defs><g clip-path="url(#__lottie_element_1609)"><g style="display: block;" transform="matrix(3.430000066757202,0,0,3.430000066757202,-3670.948974609375,-1133.1829833984375)" opacity="1"><g opacity="1" transform="matrix(1,0,0,1,0,0)"><g opacity="1" transform="matrix(1,0,0,1,1184.2860107421875,449.4620056152344)"><path fill="rgb(233,141,34)" fill-opacity="1" d=" M10.692999839782715,-14.663000106811523 C10.692999839782715,-14.663000106811523 -2.8399999141693115,-15.38599967956543 -2.8399999141693115,-15.38599967956543 C-2.8399999141693115,-15.38599967956543 -10.692999839782715,2.4739999771118164 -10.692999839782715,2.4739999771118164 C-10.692999839782715,2.4739999771118164 -4,2.8610000610351562 -4,2.8610000610351562 C-4,2.8610000610351562 -10.26200008392334,15.38599967956543 -10.26200008392334,15.38599967956543 C-10.26200008392334,15.38599967956543 6.2829999923706055,0 6.2829999923706055,0 C6.2829999923706055,0 0.09799999743700027,0 0.09799999743700027,0 C0.09799999743700027,0 10.692999839782715,-14.663000106811523 10.692999839782715,-14.663000106811523z"/></g><g style="mix-blend-mode: multiply;" opacity="1" transform="matrix(1,0,0,1,1184.5009765625,449.63299560546875)"><path fill="rgb(252,216,169)" fill-opacity="1" d=" M3.322000026702881,-15.21500015258789 C3.2899999618530273,-15.217000007629395 -2.4749999046325684,0.6800000071525574 -2.4749999046325684,0.6800000071525574 C-2.4749999046325684,0.6800000071525574 0.4230000078678131,0.8730000257492065 0.4230000078678131,0.8730000257492065 C0.4230000078678131,0.8730000257492065 -10.477999687194824,15.21500015258789 -10.477999687194824,15.21500015258789 C-10.477999687194824,15.21500015258789 6.067999839782715,-0.17000000178813934 6.067999839782715,-0.17000000178813934 C6.067999839782715,-0.17000000178813934 -0.11699999868869781,-0.17000000178813934 -0.11699999868869781,-0.17000000178813934 C-0.11699999868869781,-0.17000000178813934 10.477999687194824,-14.833000183105469 10.477999687194824,-14.833000183105469 C10.477999687194824,-14.833000183105469 3.322000026702881,-15.21500015258789 3.322000026702881,-15.21500015258789z"/></g></g></g><g style="display: none;" transform="matrix(3.430000066757202,0,0,3.430000066757202,-3670.948974609375,-1133.1829833984375)" opacity="0.0054945054959122785"><g opacity="1" transform="matrix(1,0,0,1,0,0)"><g opacity="1" transform="matrix(1,0,0,1,1156.7349853515625,456.25799560546875)"><path fill="rgb(253,220,84)" fill-opacity="1" d=" M8.333999633789062,-11.163999557495117 C8.333999633789062,-11.163999557495117 16.857999801635742,-26.356000900268555 16.857999801635742,-26.356000900268555 C16.857999801635742,-26.356000900268555 -2.428999900817871,-27.73699951171875 -2.428999900817871,-27.73699951171875 C-6.244999885559082,-19.634000778198242 -10.060999870300293,-11.531000137329102 -13.876999855041504,-3.427999973297119 C-10.281999588012695,-3.497999906539917 -6.85699987411499,-3.6019999980926514 -3.26200008392334,-3.671999931335449 C-6.164000034332275,0.5009999871253967 -9.065999984741211,4.489999771118164 -11.968000411987305,8.663000106811523 C-10.602999687194824,8.623000144958496 -9.232000350952148,8.588000297546387 -7.867000102996826,8.54800033569336 C-10.86400032043457,14.944000244140625 -13.861000061035156,21.340999603271484 -16.857999801635742,27.73699951171875 C-16.857999801635742,27.73699951171875 2.2269999980926514,5.228000164031982 2.2269999980926514,5.228000164031982 C0.5529999732971191,5.370999813079834 -1.152999997138977,5.552000045776367 -2.8269999027252197,5.695000171661377 C2.8340001106262207,0.11999999731779099 8.494000434875488,-5.453999996185303 14.154999732971191,-11.029000282287598 C14.154999732971191,-11.029000282287598 8.333999633789062,-11.163999557495117 8.333999633789062,-11.163999557495117z"/></g><g style="mix-blend-mode: multiply;" opacity="1" transform="matrix(1,0,0,1,1156.7349853515625,456.71099853515625)"><path fill="rgb(252,216,169)" fill-opacity="1" d=" M10.243000030517578,-27.284000396728516 C10.243000030517578,-27.284000396728516 3.2170000076293945,-8.795000076293945 3.2170000076293945,-8.795000076293945 C3.2170000076293945,-8.795000076293945 6.730000019073486,-8.795000076293945 6.730000019073486,-8.795000076293945 C6.730000019073486,-8.795000076293945 -6.447000026702881,6.048999786376953 -6.447000026702881,6.048999786376953 C-6.447000026702881,6.048999786376953 -1.4220000505447388,6.048999786376953 -1.4220000505447388,6.048999786376953 C-1.4220000505447388,6.048999786376953 -16.857999801635742,27.284000396728516 -16.857999801635742,27.284000396728516 C-16.857999801635742,27.284000396728516 2.2269999980926514,4.775000095367432 2.2269999980926514,4.775000095367432 C2.2269999980926514,4.775000095367432 -2.8269999027252197,5.242000102996826 -2.8269999027252197,5.242000102996826 C-2.8269999027252197,5.242000102996826 14.154999732971191,-11.482999801635742 14.154999732971191,-11.482999801635742 C14.154999732971191,-11.482999801635742 8.333999633789062,-11.616999626159668 8.333999633789062,-11.616999626159668 C8.333999633789062,-11.616999626159668 16.857999801635742,-26.809999465942383 16.857999801635742,-26.809999465942383 C16.857999801635742,-26.809999465942383 10.243000030517578,-27.284000396728516 10.243000030517578,-27.284000396728516z"/></g></g></g><g style="display: none;" transform="matrix(3.430000066757202,0,0,3.430000066757202,-3670.948974609375,-1133.1829833984375)" opacity="0.46553446553586614"><g opacity="1" transform="matrix(1,0,0,1,0,0)"><g opacity="1" transform="matrix(1,0,0,1,1130.7650146484375,451.59600830078125)"><path fill="rgb(233,141,34)" fill-opacity="1" d=" M10.321999549865723,-19.753999710083008 C10.321999549865723,-19.753999710083008 2.125999927520752,-0.42500001192092896 2.125999927520752,-0.42500001192092896 C2.125999927520752,-0.42500001192092896 8.465999603271484,-0.42500001192092896 8.465999603271484,-0.42500001192092896 C8.465999603271484,-0.42500001192092896 -6.5329999923706055,21.531999588012695 -6.5329999923706055,21.531999588012695 C-6.5329999923706055,21.531999588012695 -2.203000068664551,2.503999948501587 -2.203000068664551,2.503999948501587 C-2.203000068664551,2.503999948501587 -10.321999549865723,1.7400000095367432 -10.321999549865723,1.7400000095367432 C-10.321999549865723,1.7400000095367432 -6.5329999923706055,-21.531999588012695 -6.5329999923706055,-21.531999588012695 C-6.5329999923706055,-21.531999588012695 10.321999549865723,-19.753999710083008 10.321999549865723,-19.753999710083008z"/></g><g style="mix-blend-mode: multiply;" opacity="1" transform="matrix(1,0,0,1,1132.6590576171875,452.2929992675781)"><path fill="rgb(252,216,169)" fill-opacity="1" d=" M4.771999835968018,-20.836000442504883 C4.771999835968018,-20.836000442504883 -1.4299999475479126,0.07699999958276749 -1.4299999475479126,0.07699999958276749 C-1.4299999475479126,0.07699999958276749 3.1510000228881836,0.5989999771118164 3.1510000228881836,0.5989999771118164 C3.1510000228881836,0.5989999771118164 -8.427000045776367,20.836000442504883 -8.427000045776367,20.836000442504883 C-8.427000045776367,20.836000442504883 6.572000026702881,-1.121999979019165 6.572000026702881,-1.121999979019165 C6.572000026702881,-1.121999979019165 0.23199999332427979,-1.121999979019165 0.23199999332427979,-1.121999979019165 C0.23199999332427979,-1.121999979019165 8.427000045776367,-20.450000762939453 8.427000045776367,-20.450000762939453 C8.427000045776367,-20.450000762939453 4.771999835968018,-20.836000442504883 4.771999835968018,-20.836000442504883z"/></g></g></g><g transform="matrix(3.430000066757202,0,0,3.430000066757202,-3659.708251953125,-1134.8974609375)" opacity="1" style="display: block;"><g opacity="1" transform="matrix(1,0,0,1,1154.7010498046875,408.7380065917969)"><path fill="rgb(232,242,247)" fill-opacity="1" d=" M60.75299835205078,11.673999786376953 C59.14400100708008,14.965999603271484 54.652000427246094,16.75200080871582 51.448001861572266,14.95199966430664 C50.65800094604492,23.042999267578125 45.01100158691406,30.445999145507812 37.41699981689453,33.327999114990234 C29.83799934387207,36.224998474121094 20.679000854492188,34.45399856567383 14.710000038146973,28.952999114990234 C12.9399995803833,31.000999450683594 10.378999710083008,32.347999572753906 7.686999797821045,32.654998779296875 C4.994999885559082,32.97700119018555 2.5220000743865967,32.45000076293945 0.3269999921321869,30.8700008392334 C-5.072000026702881,37.659000396728516 -14.52299976348877,40.9370002746582 -22.96500015258789,38.93199920654297 C-31.406999588012695,36.928001403808594 -38.387001037597656,29.759000778198242 -40.15700149536133,21.257999420166016 C-41.75199890136719,22.48699951171875 -44.005001068115234,22.77899932861328 -45.862998962402344,22.01799964904785 C-47.72100067138672,21.243000030517578 -49.03799819946289,19.488000869750977 -49.30099868774414,17.482999801635742 C-54.290000915527344,18.56599998474121 -59.67499923706055,15.638999938964844 -62.104000091552734,11.147000312805176 C-64.53299713134766,6.65500020980835 -64.23999786376953,0.9929999709129333 -62.01599884033203,-3.6010000705718994 C-60.49399948120117,-6.761000156402588 -58.07899856567383,-9.468000411987305 -55.167999267578125,-11.413999557495117 C-55.167999267578125,-11.413999557495117 -55.15399932861328,-11.428000450134277 -55.15399932861328,-11.428000450134277 C-53.41299819946289,-12.583999633789062 -51.48099899291992,-13.47700023651123 -49.46200180053711,-14.032999992370605 C-44.04899978637695,-15.496000289916992 -38.020999908447266,-14.515999794006348 -33.354000091552734,-11.413999557495117 C-32.66600036621094,-13.550000190734863 -29.88599967956543,-14.706000328063965 -27.867000579833984,-13.696000099182129 C-29.023000717163086,-16.79800033569336 -27.895999908447266,-20.601999282836914 -25.24799919128418,-22.591999053955078 C-22.600000381469727,-24.566999435424805 -18.795000076293945,-24.639999389648438 -16.14699935913086,-22.665000915527344 C-16.4689998626709,-29.468000411987305 -12.006999969482422,-36.22800064086914 -5.61299991607666,-38.58399963378906 C0.781000018119812,-40.939998626708984 8.579000473022461,-38.70100021362305 12.734000205993652,-33.301998138427734 C16.025999069213867,-32.33599853515625 17.95800018310547,-28.44499969482422 17.006999969482422,-25.13800048828125 C19.20199966430664,-27.113000869750977 22.420000076293945,-27.858999252319336 25.243999481201172,-27.054000854492188 C28.06800079345703,-26.249000549316406 30.408000946044922,-23.908000946044922 31.21299934387207,-21.06999969482422 C36.11399841308594,-25.225000381469727 42.80099868774414,-27.389999389648438 49.13600158691406,-26.292999267578125 C52.5890007019043,-25.69300079345703 55.867000579833984,-24.05500030517578 58.44200134277344,-21.684999465942383 C60.59299850463867,-19.724000930786133 62.2599983215332,-17.25200080871582 63.13800048828125,-14.472000122070312 C65.06900024414062,-8.342000007629395 62.729000091552734,-0.9670000076293945 57.2859992980957,2.4709999561309814 C60.680999755859375,3.890000104904175 62.36199951171875,8.366999626159668 60.75299835205078,11.673999786376953z"/></g><g opacity="1" transform="matrix(1,0,0,1,1154.7010498046875,417.65301513671875)"><path fill="rgb(184,224,245)" fill-opacity="1" d=" M60.75299835205078,2.759000062942505 C59.14400100708008,6.051000118255615 54.652000427246094,7.835999965667725 51.448001861572266,6.035999774932861 C50.65800094604492,14.126999855041504 45.01100158691406,21.5310001373291 37.41699981689453,24.413000106811523 C29.83799934387207,27.309999465942383 20.679000854492188,25.538999557495117 14.710000038146973,20.038000106811523 C12.9399995803833,22.086000442504883 10.378999710083008,23.433000564575195 7.686999797821045,23.739999771118164 C4.994999885559082,24.062000274658203 2.5220000743865967,23.53499984741211 0.3269999921321869,21.954999923706055 C-5.072000026702881,28.743999481201172 -14.52299976348877,32.02199935913086 -22.96500015258789,30.017000198364258 C-31.406999588012695,28.01300048828125 -38.387001037597656,20.843000411987305 -40.15700149536133,12.342000007629395 C-41.75199890136719,13.571000099182129 -44.005001068115234,13.86400032043457 -45.862998962402344,13.102999687194824 C-47.72100067138672,12.32800006866455 -49.03799819946289,10.571999549865723 -49.30099868774414,8.567000389099121 C-54.290000915527344,9.649999618530273 -59.67499923706055,6.723999977111816 -62.104000091552734,2.2320001125335693 C-64.53299713134766,-2.259999990463257 -64.23999786376953,-7.921999931335449 -62.01599884033203,-12.515999794006348 C-60.49399948120117,-15.675999641418457 -58.07899856567383,-18.382999420166016 -55.167999267578125,-20.32900047302246 C-56.470001220703125,-18.631999969482422 -57.465999603271484,-16.71500015258789 -57.97800064086914,-14.63700008392334 C-58.87099838256836,-11.081999778747559 -58.242000579833984,-7.072999954223633 -55.95899963378906,-4.190999984741211 C-53.676998138427734,-1.3229999542236328 -49.66699981689453,0.21299999952316284 -46.14099884033203,-0.8259999752044678 C-46.41899871826172,1.1490000486373901 -45.36600112915039,3.2279999256134033 -43.61000061035156,4.164000034332275 C-41.854000091552734,5.085999965667725 -39.542999267578125,4.791999816894531 -38.064998626708984,3.4609999656677246 C-36.9379997253418,7.410999774932861 -35.694000244140625,11.376999855041504 -33.513999938964844,14.859000205993652 C-31.319000244140625,18.340999603271484 -28.232999801635742,21.3700008392334 -24.413999557495117,22.87700080871582 C-20.113000869750977,24.589000701904297 -15.03499984741211,24.194000244140625 -11.041000366210938,21.83799934387207 C-7.046999931335449,19.48200035095215 -4.23799991607666,15.23900032043457 -3.6530001163482666,10.645000457763672 C-2.9509999752044678,14.361000061035156 1.277999997138977,17.273000717163086 5.052999973297119,17.12700080871582 C8.843000411987305,16.981000900268555 12.281000137329102,13.791000366210938 12.704999923706055,10.031000137329102 C14.357999801635742,14.552000045776367 19.68400001525879,17.288000106811523 24.49799919128418,17.243999481201172 C29.312000274658203,17.21500015258789 33.875999450683594,14.46399974822998 36.685001373291016,10.557000160217285 C39.49399948120117,6.651000022888184 40.650001525878906,1.7059999704360962 40.50400161743164,-3.0929999351501465 C42.507999420166016,-3.619999885559082 43.43000030517578,-6.48799991607666 42.0989990234375,-8.067999839782715 C48.38999938964844,-6.9710001945495605 55.222999572753906,-10.232999801635742 58.32500076293945,-15.821999549865723 C60.82699966430664,-20.31399917602539 60.768001556396484,-26.049999237060547 58.44200134277344,-30.600000381469727 C60.59299850463867,-28.638999938964844 62.2599983215332,-26.16699981689453 63.13800048828125,-23.386999130249023 C65.06900024414062,-17.256999969482422 62.729000091552734,-9.881999969482422 57.2859992980957,-6.443999767303467 C60.680999755859375,-5.025000095367432 62.36199951171875,-0.5479999780654907 60.75299835205078,2.759000062942505z"/></g><g opacity="1" transform="matrix(1,0,0,1,1134.5069580078125,399.60198974609375)"><path fill="rgb(184,224,245)" fill-opacity="1" d=" M-7.245999813079834,-3.815999984741211 C-7.120999813079834,-3.11299991607666 -6.933000087738037,-2.4170000553131104 -6.633999824523926,-1.7680000066757202 C-6.035999774932861,-0.4690000116825104 -4.989999771118164,0.6179999709129333 -3.7149999141693115,1.2649999856948853 C-2.440000057220459,1.9119999408721924 -0.9430000185966492,2.115000009536743 0.4580000042915344,1.8300000429153442 C1.190000057220459,2.9049999713897705 2.3420000076293945,3.625999927520752 3.634000062942505,3.7839999198913574 C4.925000190734863,3.941999912261963 6.2769999504089355,3.5179998874664307 7.245999813079834,2.6500000953674316 C6.28000020980835,2.986999988555908 5.178999900817871,2.88100004196167 4.289999961853027,2.374000072479248 C3.4010000228881836,1.8669999837875366 2.749000072479248,0.9629999995231628 2.5480000972747803,-0.03999999910593033 C0.7350000143051147,0.5669999718666077 -1.2699999809265137,0.5410000085830688 -3.0739998817443848,-0.09300000220537186 C-4.877999782562256,-0.7269999980926514 -6.210999965667725,-2.2090001106262207 -7.245999813079834,-3.815999984741211z"/></g><g opacity="1" transform="matrix(1,0,0,1,1179.70703125,398.3999938964844)"><path fill="rgb(184,224,245)" fill-opacity="1" d=" M-5.0329999923706055,1.9320000410079956 C-4.619999885559082,3.4649999141693115 -4.651000022888184,5.114999771118164 -5.119999885559082,6.631999969482422 C-5.303999900817871,7.228000164031982 -5.585000038146973,7.790999889373779 -6.047999858856201,8.208999633789062 C-4.86299991607666,8.262999534606934 -3.6659998893737793,7.714000225067139 -2.933000087738037,6.7820000648498535 C-2.200000047683716,5.849999904632568 -1.909000039100647,4.638999938964844 -2.240999937057495,3.5 C0.3019999861717224,2.9100000858306885 2.6089999675750732,1.3530000448226929 4.107999801635742,-0.7839999794960022 C5.60699987411499,-2.9210000038146973 6.284999847412109,-5.619999885559082 5.973999977111816,-8.211999893188477 C5.609000205993652,-5.488999843597412 4.453000068664551,-2.7070000171661377 2.515000104904175,-0.7590000033378601 C0.5770000219345093,1.1890000104904175 -2.305999994277954,2.2679998874664307 -5.0329999923706055,1.9320000410079956z"/></g><g opacity="1" transform="matrix(1,0,0,1,1149.3499755859375,421.5409851074219)"><path fill="rgb(184,224,245)" fill-opacity="1" d=" M-7.182000160217285,-4.247000217437744 C-7.702000141143799,-2.5889999866485596 -7.175000190734863,-0.7409999966621399 -6.183000087738037,0.6859999895095825 C-4.671999931335449,2.859999895095825 -2.066999912261963,4.23199987411499 0.5809999704360962,4.247000217437744 C3.2290000915527344,4.263000011444092 5.8480000495910645,2.9210000038146973 7.385000228881836,0.7649999856948853 C4.440000057220459,1.9589999914169312 1.059999942779541,2.1579999923706055 -1.9240000247955322,1.0640000104904175 C-3.11899995803833,0.6259999871253967 -4.25600004196167,0.004999999888241291 -5.192999839782715,-0.8560000061988831 C-6.130000114440918,-1.7170000076293945 -6.876999855041504,-3.01200008392334 -7.182000160217285,-4.247000217437744z"/></g></g></g></svg>